<svg width="151" height="156" viewBox="0 0 151 156" fill="none" xmlns="http://www.w3.org/2000/svg">
<path d="M26 26.8348L126 2L116 100L74 114L26 26.8348Z" fill="#026ACD"/>
<path d="M98.5183 40.5L150.5 33L145 125L84 146L98.5183 40.5Z" fill="#026ACD"/>
<path d="M0.489441 54.7423L96.0038 25.128L127.129 125.514L82.4955 134.342L44.5 143L0.489441 54.7423Z" fill="#026ACD"/>
<path d="M64.344 51.944C64.36 52.104 64.344 52.256 64.296 52.4C64.264 52.496 64.216 52.576 64.152 52.64C64.104 52.704 64.04 52.768 63.96 52.832C63.816 52.928 63.64 53.016 63.432 53.096C63.304 53.128 63.176 53.152 63.048 53.168C62.936 53.2 62.816 53.2 62.688 53.168C62.432 53.152 62.208 53.056 62.016 52.88C61.744 52.656 61.52 52.408 61.344 52.136C61.264 52.008 61.176 51.864 61.08 51.704C60.984 51.544 60.896 51.376 60.816 51.2L58.152 46.136C58.024 46.136 57.896 46.144 57.768 46.16C57.64 46.16 57.512 46.168 57.384 46.184C57.048 46.216 56.728 46.224 56.424 46.208C56.136 46.192 55.832 46.192 55.512 46.208H55.056V50.552C55.056 50.68 55.048 50.8 55.032 50.912C55.032 51.024 55.032 51.144 55.032 51.272C55.032 51.352 55.024 51.456 55.008 51.584C55.008 51.712 55 51.832 54.984 51.944C54.952 52.12 54.88 52.304 54.768 52.496C54.656 52.672 54.504 52.824 54.312 52.952C53.976 53.16 53.568 53.216 53.088 53.12C52.88 53.072 52.68 52.992 52.488 52.88C52.424 52.832 52.368 52.776 52.32 52.712C52.272 52.632 52.232 52.552 52.2 52.472C52.168 52.392 52.136 52.312 52.104 52.232C52.088 52.136 52.064 52.048 52.032 51.968C51.984 51.808 51.96 51.656 51.96 51.512V37.88C51.96 37.784 51.96 37.688 51.96 37.592C51.976 37.48 51.992 37.384 52.008 37.304C52.024 37.128 52.08 36.952 52.176 36.776C52.224 36.584 52.304 36.448 52.416 36.368C52.512 36.272 52.656 36.192 52.848 36.128C53.056 36.048 53.352 36.016 53.736 36.032C54.456 36.048 55.168 36.056 55.872 36.056C56.576 36.056 57.28 36.072 57.984 36.104C58.448 36.136 58.936 36.192 59.448 36.272C59.976 36.336 60.464 36.456 60.912 36.632C61.2 36.744 61.464 36.856 61.704 36.968C62.008 37.144 62.248 37.312 62.424 37.472C62.984 37.984 63.408 38.6 63.696 39.32C63.984 40.04 64.128 40.768 64.128 41.504C64.128 42.368 63.92 43.16 63.504 43.88C63.104 44.6 62.456 45.136 61.56 45.488C61.528 45.52 61.48 45.544 61.416 45.56C61.368 45.56 61.328 45.568 61.296 45.584L63.504 50.024L63.72 50.408C63.752 50.472 63.792 50.544 63.84 50.624C63.888 50.704 63.928 50.784 63.96 50.864C64.008 50.944 64.048 51.032 64.08 51.128C64.128 51.224 64.176 51.312 64.224 51.392C64.272 51.616 64.312 51.8 64.344 51.944ZM58.344 43.4C58.632 43.4 58.904 43.352 59.16 43.256C59.432 43.144 59.672 43 59.88 42.824C60.104 42.648 60.288 42.448 60.432 42.224C60.576 41.984 60.656 41.728 60.672 41.456C60.736 40.656 60.528 40.064 60.048 39.68C59.568 39.28 58.936 39.064 58.152 39.032C57.688 39 57.176 38.984 56.616 38.984C56.072 38.984 55.552 38.984 55.056 38.984C55.072 39.64 55.072 40.312 55.056 41C55.056 41.672 55.056 42.472 55.056 43.4H58.344ZM74.5843 49.712C74.7763 49.664 74.9683 49.632 75.1603 49.616C75.3683 49.6 75.5523 49.624 75.7123 49.688C75.8883 49.752 76.0323 49.864 76.1443 50.024C76.2563 50.168 76.3123 50.376 76.3123 50.648C76.3123 50.84 76.2643 51.024 76.1683 51.2C76.0723 51.376 75.9523 51.536 75.8083 51.68C75.6643 51.824 75.5043 51.952 75.3283 52.064C75.1523 52.16 74.9843 52.24 74.8243 52.304C74.3603 52.512 73.8243 52.672 73.2163 52.784C72.6243 52.896 72.0083 52.936 71.3683 52.904C70.5043 52.872 69.6723 52.704 68.8723 52.4C68.0883 52.08 67.4723 51.56 67.0243 50.84C66.6083 50.136 66.3603 49.352 66.2803 48.488C66.2003 47.624 66.2403 46.808 66.4003 46.04C66.5763 45.112 66.8723 44.36 67.2883 43.784C67.7203 43.192 68.2323 42.72 68.8243 42.368C69.5443 41.952 70.3523 41.736 71.2483 41.72C72.1443 41.704 73.0003 41.88 73.8163 42.248C74.3603 42.488 74.8483 42.816 75.2803 43.232C75.7123 43.632 76.0403 44.12 76.2643 44.696C76.3283 44.84 76.3763 45.016 76.4083 45.224C76.4563 45.432 76.4883 45.656 76.5043 45.896C76.5203 46.12 76.5203 46.344 76.5043 46.568C76.4883 46.792 76.4483 46.992 76.3843 47.168C76.2883 47.456 76.1683 47.68 76.0243 47.84C75.8803 48 75.6963 48.12 75.4723 48.2C75.2483 48.28 74.9763 48.336 74.6563 48.368C74.3523 48.384 73.9843 48.4 73.5523 48.416C73.1683 48.432 72.8083 48.44 72.4723 48.44C72.1363 48.44 71.7923 48.44 71.4403 48.44C71.0883 48.424 70.7203 48.416 70.3363 48.416C69.9683 48.4 69.5523 48.384 69.0883 48.368C69.0403 48.688 69.0803 48.968 69.2083 49.208C69.3523 49.432 69.5443 49.624 69.7843 49.784C70.0243 49.928 70.2963 50.04 70.6003 50.12C70.9043 50.2 71.2003 50.248 71.4883 50.264C72.0323 50.296 72.5523 50.256 73.0483 50.144C73.5443 50.016 74.0563 49.872 74.5843 49.712ZM73.5523 45.056C73.2483 44.704 72.9283 44.448 72.5923 44.288C72.3363 44.176 72.0643 44.128 71.7763 44.144C71.5043 44.144 71.2403 44.184 70.9843 44.264C70.5203 44.376 70.1283 44.616 69.8083 44.984C69.7763 45.016 69.7203 45.096 69.6403 45.224C69.5603 45.336 69.4803 45.456 69.4003 45.584C69.3363 45.712 69.2883 45.832 69.2563 45.944C69.2243 46.056 69.2403 46.112 69.3043 46.112H74.0083C73.9923 45.888 73.9523 45.704 73.8883 45.56C73.8243 45.4 73.7123 45.232 73.5523 45.056ZM81.018 42.896C81.498 42.656 82.002 42.488 82.53 42.392C83.058 42.28 83.578 42.256 84.09 42.32C84.618 42.368 85.122 42.504 85.602 42.728C86.082 42.936 86.53 43.24 86.946 43.64C87.362 44.056 87.682 44.512 87.906 45.008C88.13 45.504 88.29 46.056 88.386 46.664C88.45 47.08 88.554 47.464 88.698 47.816C88.842 48.168 88.994 48.52 89.154 48.872C89.33 49.224 89.49 49.576 89.634 49.928C89.794 50.28 89.922 50.648 90.018 51.032C90.098 51.4 90.066 51.76 89.922 52.112C89.794 52.448 89.522 52.656 89.106 52.736C88.866 52.784 88.634 52.768 88.41 52.688C88.202 52.592 88.01 52.464 87.834 52.304C87.658 52.128 87.498 51.944 87.354 51.752C87.226 51.544 87.106 51.352 86.994 51.176C86.626 51.656 86.226 52.032 85.794 52.304C85.362 52.56 84.842 52.728 84.234 52.808C83.722 52.872 83.234 52.888 82.77 52.856C82.306 52.824 81.81 52.736 81.282 52.592C80.594 52.416 80.026 52.112 79.578 51.68C79.146 51.232 78.81 50.72 78.57 50.144C78.346 49.552 78.226 48.92 78.21 48.248C78.194 47.576 78.274 46.912 78.45 46.256C78.674 45.392 79.01 44.688 79.458 44.144C79.906 43.6 80.426 43.184 81.018 42.896ZM81.618 45.704C81.394 45.928 81.218 46.192 81.09 46.496C80.962 46.8 80.882 47.12 80.85 47.456C80.834 47.792 80.866 48.128 80.946 48.464C81.026 48.8 81.154 49.096 81.33 49.352C81.49 49.576 81.762 49.768 82.146 49.928C82.53 50.072 82.93 50.16 83.346 50.192C83.826 50.224 84.242 50.096 84.594 49.808C84.962 49.52 85.234 49.16 85.41 48.728C85.602 48.28 85.69 47.808 85.674 47.312C85.658 46.8 85.522 46.336 85.266 45.92C85.074 45.616 84.818 45.392 84.498 45.248C84.194 45.104 83.866 45.032 83.514 45.032C83.162 45.016 82.81 45.072 82.458 45.2C82.122 45.312 81.842 45.48 81.618 45.704ZM99.5027 36.224C99.8067 36.144 100.071 36.136 100.295 36.2C100.535 36.248 100.735 36.352 100.895 36.512C101.071 36.672 101.199 36.872 101.279 37.112C101.375 37.352 101.423 37.616 101.423 37.904C101.439 38.704 101.439 39.328 101.423 39.776C101.423 40.224 101.423 40.616 101.423 40.952V48.32C101.423 49.184 101.423 49.904 101.423 50.48C101.423 51.056 101.391 51.528 101.327 51.896C101.279 52.248 101.183 52.512 101.039 52.688C100.911 52.864 100.711 52.984 100.439 53.048C100.167 53.128 99.8067 53.168 99.3587 53.168C98.9267 53.168 98.3827 53.168 97.7267 53.168C95.9987 53.168 94.6307 52.76 93.6227 51.944C92.6307 51.128 92.1027 49.832 92.0387 48.056C92.0067 47.288 92.1027 46.584 92.3267 45.944C92.5507 45.304 92.8787 44.76 93.3107 44.312C93.7587 43.848 94.3027 43.496 94.9427 43.256C95.5987 43 96.3427 42.88 97.1747 42.896H98.4947V38.6C98.4947 38.344 98.4947 38.096 98.4947 37.856C98.4947 37.6 98.5187 37.368 98.5667 37.16C98.6147 36.936 98.7107 36.744 98.8547 36.584C98.9987 36.424 99.2147 36.304 99.5027 36.224ZM95.3267 49.544C95.6627 50.008 96.2707 50.264 97.1507 50.312C97.3267 50.328 97.4947 50.336 97.6547 50.336C97.8147 50.32 97.9587 50.296 98.0867 50.264C98.2307 50.248 98.3667 50.224 98.4947 50.192V45.752C97.9347 45.656 97.4227 45.6 96.9587 45.584C96.5107 45.552 96.0627 45.712 95.6147 46.064C95.3747 46.256 95.1907 46.504 95.0627 46.808C94.9347 47.096 94.8627 47.408 94.8467 47.744C94.8307 48.064 94.8627 48.384 94.9427 48.704C95.0227 49.024 95.1507 49.304 95.3267 49.544ZM106.382 43.904C106.382 44.352 106.382 44.856 106.382 45.416C106.398 45.976 106.406 46.56 106.406 47.168C106.406 47.76 106.406 48.352 106.406 48.944C106.406 49.52 106.398 50.056 106.382 50.552C106.366 50.792 106.342 51.056 106.31 51.344C106.278 51.616 106.214 51.872 106.118 52.112C106.022 52.352 105.87 52.552 105.662 52.712C105.47 52.856 105.206 52.92 104.87 52.904C104.374 52.872 104.014 52.656 103.79 52.256C103.582 51.856 103.462 51.296 103.43 50.576C103.43 50.208 103.422 49.784 103.406 49.304C103.406 48.824 103.398 48.336 103.382 47.84C103.382 47.344 103.382 46.864 103.382 46.4C103.382 45.92 103.382 45.488 103.382 45.104C103.382 44.88 103.374 44.608 103.358 44.288C103.358 43.968 103.366 43.64 103.382 43.304C103.398 42.968 103.438 42.648 103.502 42.344C103.566 42.024 103.67 41.76 103.814 41.552C103.926 41.424 104.086 41.328 104.294 41.264C104.502 41.184 104.718 41.144 104.942 41.144C105.182 41.144 105.406 41.184 105.614 41.264C105.838 41.344 105.998 41.456 106.094 41.6C106.158 41.696 106.206 41.832 106.238 42.008C106.27 42.184 106.294 42.384 106.31 42.608C106.342 42.816 106.358 43.04 106.358 43.28C106.374 43.504 106.382 43.712 106.382 43.904ZM105.47 39.056C104.974 39.184 104.558 39.136 104.222 38.912C103.902 38.672 103.702 38.32 103.622 37.856C103.558 37.52 103.582 37.224 103.694 36.968C103.806 36.712 103.974 36.52 104.198 36.392C104.422 36.248 104.678 36.184 104.966 36.2C105.254 36.216 105.542 36.328 105.83 36.536C106.102 36.728 106.294 36.952 106.406 37.208C106.534 37.464 106.574 37.712 106.526 37.952C106.494 38.192 106.39 38.416 106.214 38.624C106.038 38.816 105.79 38.96 105.47 39.056ZM115.379 42.848C115.651 42.928 115.827 43.08 115.907 43.304C115.987 43.512 116.011 43.736 115.979 43.976C115.883 44.472 115.611 44.776 115.163 44.888C114.907 44.952 114.643 44.984 114.371 44.984C114.115 44.984 113.851 44.992 113.579 45.008V50.552C113.579 50.936 113.555 51.328 113.507 51.728C113.507 51.872 113.467 52.024 113.387 52.184C113.355 52.264 113.331 52.312 113.315 52.328C113.315 52.36 113.299 52.408 113.267 52.472C113.171 52.648 113.043 52.792 112.883 52.904C112.531 53.096 112.155 53.144 111.755 53.048C111.515 53 111.331 52.92 111.203 52.808C111.059 52.696 110.955 52.56 110.891 52.4C110.859 52.32 110.835 52.24 110.819 52.16C110.803 52.08 110.779 52 110.747 51.92C110.731 51.84 110.715 51.768 110.699 51.704C110.699 51.624 110.699 51.56 110.699 51.512V50.12C110.699 49.288 110.699 48.424 110.699 47.528C110.715 46.632 110.723 45.768 110.723 44.936C110.355 44.92 109.971 44.912 109.571 44.912C109.187 44.896 108.907 44.8 108.731 44.624C108.635 44.528 108.571 44.408 108.539 44.264C108.507 44.104 108.491 43.944 108.491 43.784C108.507 43.624 108.539 43.48 108.587 43.352C108.635 43.208 108.699 43.104 108.779 43.04C108.987 42.848 109.171 42.744 109.331 42.728C109.507 42.696 109.723 42.672 109.979 42.656C110.011 42.656 110.115 42.656 110.291 42.656C110.483 42.64 110.603 42.632 110.651 42.632C110.667 42.088 110.683 41.544 110.699 41C110.715 40.456 110.763 39.96 110.843 39.512C110.939 39.048 111.075 38.648 111.251 38.312C111.443 37.96 111.731 37.696 112.115 37.52C112.579 37.312 113.107 37.184 113.699 37.136C114.291 37.088 114.827 37.16 115.307 37.352C115.531 37.432 115.747 37.592 115.955 37.832C116.179 38.072 116.283 38.336 116.267 38.624C116.251 38.912 116.195 39.176 116.099 39.416C116.003 39.656 115.795 39.816 115.475 39.896C115.331 39.928 115.179 39.944 115.019 39.944C114.875 39.928 114.723 39.92 114.563 39.92C114.403 39.92 114.251 39.944 114.107 39.992C113.979 40.024 113.867 40.096 113.771 40.208C113.691 40.304 113.635 40.432 113.603 40.592C113.587 40.752 113.571 40.92 113.555 41.096C113.539 41.272 113.531 41.448 113.531 41.624C113.547 41.784 113.555 41.92 113.555 42.032V42.632C113.923 42.664 114.259 42.688 114.563 42.704C114.883 42.72 115.155 42.768 115.379 42.848ZM129.234 42.296C129.378 42.52 129.442 42.76 129.426 43.016C129.426 43.384 129.362 43.704 129.234 43.976C129.202 44.056 129.154 44.16 129.09 44.288C129.042 44.416 128.986 44.552 128.922 44.696C128.874 44.84 128.818 44.976 128.754 45.104C128.69 45.232 128.642 45.328 128.61 45.392L128.562 45.512C128.338 46.008 128.122 46.488 127.914 46.952C127.706 47.416 127.474 47.912 127.218 48.44C126.962 48.952 126.714 49.456 126.474 49.952C126.25 50.432 126.026 50.904 125.802 51.368C125.738 51.496 125.682 51.624 125.634 51.752C125.586 51.864 125.522 51.984 125.442 52.112L124.29 54.584C124.082 55 123.882 55.408 123.69 55.808C123.514 56.208 123.314 56.608 123.09 57.008C123.042 57.088 122.994 57.16 122.946 57.224C122.914 57.304 122.882 57.384 122.85 57.464C122.738 57.656 122.57 57.84 122.346 58.016C122.138 58.208 121.914 58.312 121.674 58.328C121.242 58.36 120.866 58.232 120.546 57.944C120.354 57.832 120.202 57.672 120.09 57.464C120.026 57.32 119.994 57.136 119.994 56.912C120.01 56.816 120.018 56.72 120.018 56.624C120.034 56.544 120.05 56.464 120.066 56.384C120.098 56.304 120.122 56.224 120.138 56.144C120.154 56.064 120.178 56 120.21 55.952C120.258 55.824 120.298 55.76 120.33 55.76L122.082 51.968C122.002 51.792 121.922 51.616 121.842 51.44C121.762 51.248 121.69 51.08 121.626 50.936C121.418 50.44 121.194 49.92 120.954 49.376C120.73 48.816 120.498 48.264 120.258 47.72C120.018 47.16 119.77 46.616 119.514 46.088C119.258 45.56 119.002 45.056 118.746 44.576C118.65 44.416 118.562 44.248 118.482 44.072C118.402 43.88 118.338 43.696 118.29 43.52C118.242 43.328 118.226 43.136 118.242 42.944C118.258 42.752 118.33 42.56 118.458 42.368C118.586 42.128 118.754 41.96 118.962 41.864C119.17 41.752 119.386 41.704 119.61 41.72C119.85 41.72 120.074 41.768 120.282 41.864C120.49 41.96 120.658 42.088 120.786 42.248C121.058 42.536 121.274 42.856 121.434 43.208C121.594 43.56 121.746 43.92 121.89 44.288C122.194 44.928 122.506 45.6 122.826 46.304C123.146 47.008 123.466 47.696 123.786 48.368L125.034 45.728C125.162 45.472 125.274 45.224 125.37 44.984C125.482 44.744 125.594 44.512 125.706 44.288C125.834 44.016 125.954 43.736 126.066 43.448C126.194 43.16 126.338 42.896 126.498 42.656C126.53 42.592 126.562 42.536 126.594 42.488C126.626 42.44 126.658 42.384 126.69 42.32C126.834 42.128 126.962 41.976 127.074 41.864C127.154 41.8 127.218 41.752 127.266 41.72C127.33 41.672 127.402 41.64 127.482 41.624C127.594 41.592 127.698 41.576 127.794 41.576C127.906 41.56 128.01 41.56 128.106 41.576C128.266 41.624 128.458 41.696 128.682 41.792C128.922 41.888 129.106 42.056 129.234 42.296Z" fill="white"/>
<path d="M95.5454 82.7562V76.4875C97.8954 75.6271 100.3 74.9818 102.758 74.5516C105.216 74.1214 107.797 73.9062 110.5 73.9062C112.351 73.9062 114.167 74.0292 115.948 74.275C117.728 74.5208 119.473 74.8281 121.182 75.1969V81.0969C119.473 80.5437 117.745 80.1283 115.999 79.8505C114.253 79.5727 112.42 79.435 110.5 79.4375C107.794 79.4375 105.195 79.73 102.702 80.3151C100.21 80.9002 97.8242 81.7139 95.5454 82.7562ZM95.5454 103.037V96.7687C97.8954 95.9083 100.3 95.263 102.758 94.8328C105.216 94.4026 107.797 94.1875 110.5 94.1875C112.351 94.1875 114.167 94.3104 115.948 94.5563C117.728 94.8021 119.473 95.1094 121.182 95.4781V101.378C119.473 100.825 117.745 100.41 115.999 100.132C114.253 99.854 112.42 99.7163 110.5 99.7188C107.794 99.7188 105.195 99.9953 102.702 100.548C100.21 101.102 97.8242 101.931 95.5454 103.037ZM95.5454 92.8969V86.6281C97.8954 85.7677 100.3 85.1224 102.758 84.6922C105.216 84.262 107.797 84.0469 110.5 84.0469C112.351 84.0469 114.167 84.1698 115.948 84.4156C117.728 84.6615 119.473 84.9688 121.182 85.3375V91.2375C119.473 90.6844 117.745 90.2689 115.999 89.9911C114.253 89.7133 112.42 89.5757 110.5 89.5781C107.794 89.5781 105.195 89.8707 102.702 90.4557C100.21 91.0408 97.8242 91.8545 95.5454 92.8969ZM63.5 105.25C66.8469 105.25 70.1057 105.573 73.276 106.22C76.4463 106.866 79.5968 107.834 82.7273 109.122V72.8C79.8076 71.325 76.7098 70.2188 73.4341 69.4813C70.1584 68.7438 66.8469 68.375 63.5 68.375C60.9364 68.375 58.3898 68.5901 55.8604 69.0203C53.331 69.4505 50.8925 70.0958 48.5455 70.9562V107.463C51.0378 106.725 53.5133 106.172 55.9714 105.803C58.4296 105.434 60.9393 105.25 63.5 105.25ZM91.2727 109.122C94.406 107.831 97.5565 106.863 100.724 106.216C103.891 105.57 107.15 105.248 110.5 105.25C113.064 105.25 115.575 105.434 118.033 105.803C120.491 106.172 122.965 106.725 125.455 107.463V70.9562C123.105 70.0958 120.665 69.4505 118.135 69.0203C115.606 68.5901 113.061 68.375 110.5 68.375C107.153 68.375 103.842 68.7438 100.566 69.4813C97.2902 70.2188 94.1923 71.325 91.2727 72.8V109.122ZM87 120C83.5819 117.665 79.8787 115.852 75.8909 114.561C71.9031 113.27 67.7726 112.625 63.5 112.625C60.5091 112.625 57.5708 112.963 54.6854 113.639C51.7999 114.315 49.041 115.268 46.4091 116.497C44.9137 117.173 43.4723 117.142 42.0851 116.405C40.6979 115.667 40.0028 114.592 40 113.178V68.7437C40 68.0677 40.1966 67.4224 40.5896 66.8078C40.9827 66.1932 41.5695 65.7323 42.35 65.425C45.6257 63.95 49.044 62.8438 52.6045 62.1063C56.1651 61.3688 59.797 61 63.5 61C67.6302 61 71.6724 61.4609 75.626 62.3828C79.5796 63.3047 83.3711 64.6875 87 66.5312C90.6317 64.6875 94.4246 63.3047 98.3783 62.3828C102.332 61.4609 106.373 61 110.5 61C114.203 61 117.835 61.3688 121.395 62.1063C124.956 62.8438 128.374 63.95 131.65 65.425C132.433 65.7323 133.022 66.1932 133.415 66.8078C133.808 67.4224 134.003 68.0677 134 68.7437V113.178C134 114.592 133.306 115.667 131.919 116.405C130.532 117.142 129.089 117.173 127.591 116.497C124.956 115.268 122.197 114.315 119.315 113.639C116.432 112.963 113.494 112.625 110.5 112.625C106.227 112.625 102.097 113.27 98.1091 114.561C94.1213 115.852 90.4181 117.665 87 120Z" fill="#F2F2F2"/>
</svg>
