<svg width="40" height="40" viewBox="0 0 40 40" fill="none" xmlns="http://www.w3.org/2000/svg">
<path d="M30.8305 18.465H20.4689V21.6045H27.8249C27.452 25.986 23.8701 27.8605 20.4802 27.8605C16.1525 27.8605 12.3559 24.3875 12.3559 19.5C12.3559 14.785 15.9718 11.1395 20.4915 11.1395C23.9831 11.1395 26.0282 13.405 26.0282 13.405L28.1751 11.128C28.1751 11.128 25.4181 8 20.3785 8C13.9605 8 9 13.52 9 19.5C9 25.3075 13.6667 31 20.548 31C26.5932 31 31 26.7795 31 20.5465C31 19.224 30.8305 18.465 30.8305 18.465Z" fill="white"/>
</svg>
