<svg width="40" height="40" viewBox="0 0 40 40" fill="none" xmlns="http://www.w3.org/2000/svg">
<path d="M33 13.3529C32.1166 13.7647 31.1644 14.0353 30.1778 14.1647C31.1874 13.5412 31.9675 12.5529 32.3346 11.3647C31.3824 11.9529 30.327 12.3647 29.2141 12.6C28.3078 11.5882 27.0344 11 25.5889 11C22.8929 11 20.6902 13.2588 20.6902 16.0471C20.6902 16.4471 20.7361 16.8353 20.8164 17.2C16.7323 16.9882 13.0956 14.9765 10.675 11.9294C10.2505 12.6706 10.0096 13.5412 10.0096 14.4588C10.0096 16.2118 10.87 17.7647 12.2008 18.6471C11.3862 18.6471 10.6291 18.4118 9.96367 18.0588V18.0941C9.96367 20.5412 11.6616 22.5882 13.9101 23.0471C13.1882 23.2497 12.4303 23.2778 11.696 23.1294C12.0076 24.1323 12.6178 25.0099 13.4409 25.6387C14.264 26.2676 15.2586 26.6161 16.2849 26.6353C14.5453 28.0476 12.3889 28.811 10.1702 28.8C9.78011 28.8 9.39006 28.7765 9 28.7294C11.1797 30.1647 13.7725 31 16.5488 31C25.5889 31 30.5564 23.3059 30.5564 16.6353C30.5564 16.4118 30.5564 16.2 30.5449 15.9765C31.5086 15.2706 32.3346 14.3765 33 13.3529Z" fill="white"/>
</svg>
