<svg width="80" height="80" viewBox="0 0 80 80" fill="none" xmlns="http://www.w3.org/2000/svg">
<rect width="80" height="80" fill="#179DD0"/>
<path fill-rule="evenodd" clip-rule="evenodd" d="M26.6667 23.3333C26.6667 19.7971 28.0714 16.4057 30.5719 13.9052C33.0724 11.4048 36.4638 10 40 10C43.5362 10 46.9276 11.4048 49.4281 13.9052C51.9286 16.4057 53.3333 19.7971 53.3333 23.3333C53.3333 26.8696 51.9286 30.2609 49.4281 32.7614C46.9276 35.2619 43.5362 36.6667 40 36.6667C36.4638 36.6667 33.0724 35.2619 30.5719 32.7614C28.0714 30.2609 26.6667 26.8696 26.6667 23.3333ZM26.6667 43.3333C22.2464 43.3333 18.0072 45.0893 14.8816 48.2149C11.7559 51.3405 10 55.5797 10 60C10 62.6522 11.0536 65.1957 12.9289 67.0711C14.8043 68.9464 17.3478 70 20 70H60C62.6522 70 65.1957 68.9464 67.0711 67.0711C68.9464 65.1957 70 62.6522 70 60C70 55.5797 68.2441 51.3405 65.1184 48.2149C61.9928 45.0893 57.7536 43.3333 53.3333 43.3333H26.6667Z" fill="white"/>
</svg>
